<?xml version="1.0" encoding="UTF-8"?>
<svg width="223px" height="127px" viewBox="0 0 223 127" version="1.1" xmlns="http://www.w3.org/2000/svg" xmlns:xlink="http://www.w3.org/1999/xlink">
    <!-- Generator: Sketch 50.2 (55047) - http://www.bohemiancoding.com/sketch -->
    <title>Marrimeko Charts</title>
    <desc>Created with Sketch.</desc>
    <defs>
        <linearGradient x1="94.893743%" y1="100%" x2="10.1069014%" y2="6.02534227%" id="linearGradient-1">
            <stop stop-color="#7AA3FB" offset="0%"></stop>
            <stop stop-color="#2CDAFC" offset="100%"></stop>
        </linearGradient>
        <linearGradient x1="50%" y1="-53.4900845%" x2="50%" y2="100%" id="linearGradient-2">
            <stop stop-color="#FFEFB5" offset="0%"></stop>
            <stop stop-color="#FF9A6B" offset="100%"></stop>
        </linearGradient>
        <linearGradient x1="50%" y1="0%" x2="50%" y2="100%" id="linearGradient-3">
            <stop stop-color="#2CC7C0" offset="0%"></stop>
            <stop stop-color="#59D99D" offset="100%"></stop>
        </linearGradient>
    </defs>
    <g id="Page-1" stroke="none" stroke-width="1" fill="none" fill-rule="evenodd">
        <g id="fusionCharts-XT" transform="translate(-1348.000000, -500.000000)">
            <g id="Chart-1-Copy-5" transform="translate(1326.000000, 474.000000)">
                <g id="Marrimeko-Charts" transform="translate(21.000000, 25.000000)">
                    <g id="graph" transform="translate(0.000000, 33.000000)">
                        <g id="Group-2" transform="translate(0.310345, 1.681672)" fill="#7A869B" font-family="SourceSansPro-Semibold, Source Sans Pro" font-size="4.3860002" font-weight="500">
                            <text id="$-0">
                                <tspan x="7.72883143" y="84.4410076">$ 0</tspan>
                            </text>
                            <text id="$-200k">
                                <tspan x="1.19115419" y="64.8566162">$ 200k</tspan>
                            </text>
                            <text id="$-400k">
                                <tspan x="1.19115419" y="44.577053">$ 400k</tspan>
                            </text>
                            <text id="$-600k">
                                <tspan x="1.19115419" y="24.8769059">$ 600k</tspan>
                            </text>
                            <text id="$-800k">
                                <tspan x="1.19115419" y="4.59734272">$ 800k</tspan>
                            </text>
                        </g>
                        <rect id="Rectangle-5" fill="#D8D8D8" opacity="0.4" x="19" y="65" width="204.413793" height="1"></rect>
                        <rect id="Rectangle-5" fill="#D8D8D8" opacity="0.4" x="19" y="45" width="204.413793" height="1"></rect>
                        <rect id="Rectangle-5" fill="#D8D8D8" opacity="0.4" x="19" y="25" width="204.413793" height="1"></rect>
                        <rect id="Rectangle-5" fill="#D8D8D8" opacity="0.4" x="19" y="5" width="204.413793" height="1"></rect>
                        <text id="132-M" font-family="SourceSansPro-Regular, Source Sans Pro" font-size="4.3860002" font-weight="normal" fill="#000000">
                            <tspan x="46.1973258" y="4">132 M</tspan>
                        </text>
                        <text id="Chrome" font-family="SourceSansPro-Regular, Source Sans Pro" font-size="4.3860002" font-weight="normal" fill="#000000">
                            <tspan x="44.2214327" y="94">Chrome</tspan>
                        </text>
                        <text id="Mozilla" font-family="SourceSansPro-Regular, Source Sans Pro" font-size="4.3860002" font-weight="normal" fill="#000000">
                            <tspan x="97.0350357" y="94">Mozilla</tspan>
                        </text>
                        <text id="IE" font-family="SourceSansPro-Regular, Source Sans Pro" font-size="4.3860002" font-weight="normal" fill="#000000">
                            <tspan x="144.26753" y="94">IE</tspan>
                        </text>
                        <text id="Safari" font-family="SourceSansPro-Regular, Source Sans Pro" font-size="4.3860002" font-weight="normal" fill="#000000">
                            <tspan x="167.221449" y="94">Safari</tspan>
                        </text>
                        <text id="UB" font-family="SourceSansPro-Regular, Source Sans Pro" font-size="4.3860002" font-weight="normal" fill="#000000">
                            <tspan x="192.296031" y="94">UB</tspan>
                        </text>
                        <text id="89M" font-family="SourceSansPro-Regular, Source Sans Pro" font-size="4.3860002" font-weight="normal" fill="#000000">
                            <tspan x="100.225847" y="15">89M</tspan>
                        </text>
                        <text id="56M" font-family="SourceSansPro-Regular, Source Sans Pro" font-size="4.3860002" font-weight="normal" fill="#000000">
                            <tspan x="142.225847" y="40">56M</tspan>
                        </text>
                        <text id="23M" font-family="SourceSansPro-Regular, Source Sans Pro" font-size="4.3860002" font-weight="normal" fill="#000000">
                            <tspan x="169.225847" y="60">23M</tspan>
                        </text>
                        <text id="11M" font-family="SourceSansPro-Regular, Source Sans Pro" font-size="4.3860002" font-weight="normal" fill="#000000">
                            <tspan x="191.225847" y="71">11M</tspan>
                        </text>
                        <rect id="Rectangle-5" fill="#D8D8D8" opacity="0.4" x="19" y="85" width="204.413793" height="1"></rect>
                        <g id="Group-17" transform="translate(25.517241, 10.344051)">
                            <path d="M2,15 L50,15 C51.1045695,15 52,15.8954305 52,17 L52,75 L0,75 L0,17 C-1.3527075e-16,15.8954305 0.8954305,15 2,15 Z" id="Rectangle" fill="url(#linearGradient-1)"></path>
                            <path d="M2,16 L50,16 C51.1045695,16 52,16.8954305 52,18 L52,40 L0,40 L0,18 C-1.3527075e-16,16.8954305 0.8954305,16 2,16 Z" id="Rectangle" fill="url(#linearGradient-2)"></path>
                            <path d="M2,0 L50,0 C51.1045695,-2.02906125e-16 52,0.8954305 52,2 L52,20 L0,20 L0,2 C-1.3527075e-16,0.8954305 0.8954305,2.02906125e-16 2,0 Z" id="Rectangle" fill="url(#linearGradient-3)"></path>
                            <path d="M54,10 L102,10 C103.104569,10 104,10.8954305 104,12 L104,75 L52,75 L52,12 C52,10.8954305 52.8954305,10 54,10 Z" id="Rectangle" fill="url(#linearGradient-1)"></path>
                            <path d="M54,10 L102,10 C103.104569,10 104,10.8954305 104,12 L104,50 L52,50 L52,12 C52,10.8954305 52.8954305,10 54,10 Z" id="Rectangle" fill="url(#linearGradient-2)"></path>
                            <path d="M54,10 L102,10 C103.104569,10 104,10.8954305 104,12 L104,29 L52,29 L52,12 C52,10.8954305 52.8954305,10 54,10 Z" id="Rectangle" fill="url(#linearGradient-3)"></path>
                            <path d="M106,35 L134,35 C135.104569,35 136,35.8954305 136,37 L136,75 L104,75 L104,37 C104,35.8954305 104.895431,35 106,35 Z" id="Rectangle" fill="url(#linearGradient-1)"></path>
                            <path d="M106,35 L134,35 C135.104569,35 136,35.8954305 136,37 L136,59 L104,59 L104,37 C104,35.8954305 104.895431,35 106,35 Z" id="Rectangle" fill="url(#linearGradient-2)"></path>
                            <path d="M106,35 L134,35 C135.104569,35 136,35.8954305 136,37 L136,45 L104,45 L104,37 C104,35.8954305 104.895431,35 106,35 Z" id="Rectangle" fill="url(#linearGradient-3)"></path>
                            <path d="M138,55 L156,55 C157.104569,55 158,55.8954305 158,57 L158,75 L136,75 L136,57 C136,55.8954305 136.895431,55 138,55 Z" id="Rectangle" fill="url(#linearGradient-1)"></path>
                            <path d="M138,55 L156,55 C157.104569,55 158,55.8954305 158,57 L158,70 L136,70 L136,57 C136,55.8954305 136.895431,55 138,55 Z" id="Rectangle" fill="url(#linearGradient-2)"></path>
                            <path d="M138,55 L156,55 C157.104569,55 158,55.8954305 158,57 L158,63 L136,63 L136,57 C136,55.8954305 136.895431,55 138,55 Z" id="Rectangle" fill="url(#linearGradient-3)"></path>
                            <path d="M160,65 L178,65 C179.104569,65 180,65.8954305 180,67 L180,75 L158,75 L158,67 C158,65.8954305 158.895431,65 160,65 Z" id="Rectangle" fill="url(#linearGradient-1)"></path>
                            <path d="M160,65 L178,65 C179.104569,65 180,65.8954305 180,67 L180,72 L158,72 L158,67 C158,65.8954305 158.895431,65 160,65 Z" id="Rectangle" fill="url(#linearGradient-2)"></path>
                            <path d="M160,65 L178,65 C179.104569,65 180,65.8954305 180,67 L180,69 L158,69 L158,67 C158,65.8954305 158.895431,65 160,65 Z" id="Rectangle" fill="url(#linearGradient-3)"></path>
                        </g>
                    </g>
                    <text id="Customer-Complaint-R" font-family="SourceSansPro-Bold, Source Sans Pro" font-size="5.84800026" font-weight="bold" fill="#000000">
                        <tspan x="76.0435704" y="6">Customer Complaint Report</tspan>
                    </text>
                </g>
            </g>
        </g>
    </g>
</svg>